<svg width="140" height="28" viewBox="0 0 140 28" fill="none" xmlns="http://www.w3.org/2000/svg">
  <rect width="28" height="28" rx="5.3" fill="#3B82F6"/>
  <path d="M6.85 10.47c-.21-.36-.43-.72-.65-1.07-.19-.32-.44-.68-.54-1.04-.2-.73.23-1.5.87-1.69.22-.05.54-.05.77-.05h.84l3.36-.01h6.37l2.08 0c.37 0 .74-.01 1.1 0 .22.01.43.08.61.19.31.19.52.5.6.85.04.23.04.46-.04.69-.08.26-.34.65-.49.9-.23.39-.46.81-.7 1.19l-.44.74-.47.8-.03.04c-.49.87-1 1.73-1.52 2.58-.2.33-.4.71-.61 1.04-.33.6-.73 1.24-1.09 1.83l-.43.75c-.29.5-.46.87-1.06 1.03-.34.1-.72.06-1.03-.12-.44-.25-.66-.75-.91-1.17l-.91-1.53c-.14-.24-.33-.6-.47-.82-.16-.25-.33-.53-.47-.79l-.76-1.3c-.28-.49-.62-1.02-.8-1.51-.23-.33-.51-.88-.72-1.37L6.85 10.47Z" fill="white"/>
  <text x="34" y="20" font-family="Poppins, Inter, system-ui, sans-serif" font-size="16" fill="#F1F5F9"><tspan font-weight="400">Save</tspan><tspan font-weight="600">Mate</tspan></text>
</svg>
