<svg width="140" height="28" viewBox="0 0 140 28" fill="none" xmlns="http://www.w3.org/2000/svg">
  <rect width="28" height="28" rx="5.3" fill="#2563EB"/>
  <svg x="0" y="0" width="28" height="28" viewBox="0 0 688 688">
    <path d="M168.351 257.317C163.164 248.487 157.893 239.707 152.539 230.976C147.802 223.126 141.575 214.233 139.17 205.407C134.295 187.524 145.108 168.366 163.269 163.955C168.724 162.629 176.388 163.077 182.213 163.088L202.964 163.079L285.446 163.031L442.139 163.028L493.411 163.028C502.388 163.027 511.554 162.917 520.522 163.141C525.874 163.275 531.023 165.051 535.572 167.882C543.068 172.629 548.366 180.158 550.301 188.811C551.481 194.45 551.163 200.3 549.38 205.778C547.302 212.269 540.843 221.737 537.299 227.95C531.799 237.594 525.98 247.998 519.942 257.306C516.626 263.414 512.719 269.448 509.171 275.456L486.344 314.267L474.801 333.878C473.282 336.469 470.211 342.046 468.448 344.214C456.356 365.598 443.943 386.801 431.213 407.814C426.296 416.088 421.314 425.326 416.158 433.36C407.929 448.212 398.22 463.696 389.583 478.46L378.999 496.884C371.998 509.087 367.598 518.511 352.918 522.686C344.438 525.163 335.316 524.11 327.625 519.767C316.801 513.668 311.426 501.289 305.233 490.91L282.712 453.257C279.323 447.499 274.515 438.459 271.046 433.134C267.103 427.098 263.071 419.887 259.389 413.612L240.664 381.504C233.756 369.531 225.367 356.505 219.02 344.362C213.515 336.149 206.424 322.483 201.305 313.634L168.351 257.317Z" fill="white"/>
  </svg>
  <text x="34" y="20" font-family="Poppins, Inter, system-ui, sans-serif" font-size="16" fill="#0F172A"><tspan font-weight="400">Save</tspan><tspan font-weight="500">Mate</tspan></text>
</svg>
